<svg xmlns="http://www.w3.org/2000/svg" viewBox="0 0 200 173" width="200" height="173">
	<style>
		tspan { white-space:pre }
		.shp0 { fill: #231f20 } 
		.shp1 { fill: #0057a8 } 
		.shp2 { fill: #ffffff } 
		.shp3 { fill: #aae0fa } 
	</style>
	<g >
		<path class="shp0" d="M39.12 7.42C39.04 11.5 38.97 21.82 38.95 30.35C38.92 44.29 38.95 46.12 39.26 48.5C39.45 49.95 39.73 51.91 39.88 52.85C40.04 53.78 40.38 55.65 40.65 57C40.91 58.36 41.43 60.65 41.79 62.11C42.15 63.57 42.78 65.91 43.18 67.31C43.59 68.71 44.32 71.01 44.8 72.41C45.28 73.82 46.14 76.16 46.72 77.61C47.3 79.07 48.52 81.79 49.43 83.66C50.35 85.54 51.71 88.13 52.47 89.43C53.22 90.73 54.64 93.03 55.63 94.54C56.62 96.04 58.16 98.26 59.05 99.45C59.94 100.65 61.4 102.52 62.29 103.61C63.19 104.7 64.91 106.7 66.12 108.05C67.34 109.41 69.68 111.83 71.33 113.45C72.99 115.06 75.06 117.02 75.95 117.81C76.83 118.59 78.54 120.05 79.73 121.04C80.93 122.04 83.19 123.81 84.75 124.98C86.32 126.15 89.04 128.06 90.81 129.23C92.59 130.4 95.31 132.1 96.88 133.01L99.72 134.67C101.18 133.9 102.63 133.07 103.88 132.33C105.13 131.59 107.35 130.19 108.81 129.23C110.27 128.26 112.82 126.46 114.49 125.22C116.16 123.98 118.58 122.09 119.89 121.01C121.19 119.93 123.45 117.97 124.91 116.64C126.36 115.32 128.67 113.1 130.03 111.71C131.39 110.32 133.25 108.34 134.17 107.3C135.09 106.26 136.8 104.22 137.97 102.76C139.14 101.3 140.91 98.96 141.91 97.56C142.91 96.16 144.49 93.77 145.41 92.27C146.34 90.76 147.69 88.42 148.42 87.07C149.15 85.72 150.26 83.5 150.89 82.15C151.52 80.8 152.51 78.5 153.09 77.05C153.67 75.59 154.52 73.25 154.99 71.85C155.46 70.44 156.23 67.93 156.7 66.27C157.17 64.61 157.87 61.93 158.24 60.31C158.61 58.7 159.17 55.94 159.47 54.17C159.77 52.4 160.17 49.72 160.36 48.21C160.66 45.8 160.7 44.01 160.67 33.18C160.66 26.42 160.59 16.19 160.53 10.45L160.42 0L39.25 0L39.12 7.42Z" />
		<path class="shp1" d="M41 16.59C40.92 24.36 40.85 33.83 40.84 37.63C40.82 42.2 40.9 45.26 41.06 46.7C41.2 47.9 41.52 50.28 41.78 51.99C42.04 53.71 42.59 56.65 43 58.52C43.41 60.39 44.13 63.32 44.61 65.04C45.09 66.76 45.93 69.52 46.49 71.19C47.05 72.85 47.99 75.4 48.58 76.86C49.16 78.31 49.68 79.55 49.72 79.6C49.76 79.65 60.96 68.59 74.61 55.02C88.27 41.45 99.5 30.32 99.58 30.3C99.65 30.27 110.94 41.48 124.67 55.21L149.62 80.17C150.24 78.77 150.58 77.94 150.79 77.42C151 76.9 151.51 75.54 151.92 74.4C152.33 73.26 153.1 70.92 153.62 69.2C154.15 67.48 154.95 64.63 155.41 62.87C155.87 61.1 156.54 58.16 156.9 56.34C157.26 54.52 157.72 51.8 157.93 50.29C158.14 48.79 158.41 46.32 158.53 44.81C158.7 42.74 158.7 38.05 158.54 25.62C158.43 16.57 158.33 7.66 158.33 5.81L158.33 2.46L41.14 2.46L41 16.59Z" />
		<path class="shp2" d="M131.45 8.82C131.26 8.89 131.19 9.17 131.21 9.75L131.25 10.59C129.62 10.59 129.54 10.63 129.44 11.11C129.38 11.39 129.38 11.86 129.44 12.15C129.54 12.62 129.62 12.67 130.4 12.67L131.25 12.67C131.25 14.19 131.16 14.43 130.82 14.64C130.59 14.79 130.19 15.28 129.94 15.73C129.6 16.35 129.51 16.75 129.56 17.41C129.61 17.97 129.82 18.49 130.15 18.92L130.66 19.57C129.89 20.38 129.71 20.43 129.07 20.32C128.66 20.25 127.08 19.82 125.57 19.35C124.06 18.88 122.31 18.38 121.69 18.23C121.06 18.09 119.95 17.97 119.22 17.96C118.49 17.96 117.51 18.08 117.05 18.24C116.58 18.4 115.85 18.81 115.44 19.16C114.99 19.52 114.49 20.22 114.22 20.81C113.86 21.6 113.75 22.16 113.75 23.26C113.75 24.14 113.88 25.07 114.1 25.71C114.29 26.29 115.19 28.2 116.1 29.97C117 31.74 117.84 33.63 117.96 34.17C118.08 34.72 118.18 35.46 118.18 35.83L118.18 36.49L146.4 36.49C146.4 35.46 146.5 34.72 146.63 34.17C146.75 33.63 147.59 31.74 148.5 29.97C149.4 28.2 150.29 26.29 150.49 25.71C150.7 25.07 150.83 24.14 150.83 23.26C150.83 22.16 150.72 21.6 150.37 20.81C150.1 20.22 149.59 19.52 149.15 19.16C148.73 18.81 148.01 18.4 147.54 18.24C147.07 18.08 146.09 17.96 145.36 17.96C144.63 17.97 143.52 18.09 142.9 18.23C142.27 18.38 140.53 18.88 139.02 19.35C137.5 19.82 135.93 20.25 135.51 20.32C134.87 20.43 134.69 20.38 134.34 20.01L133.92 19.57C134.77 18.49 134.97 17.97 135.02 17.41C135.08 16.75 134.98 16.35 134.64 15.73C134.39 15.28 133.99 14.79 133.76 14.64C133.42 14.43 133.33 14.19 133.33 13.52L133.33 12.67C134.96 12.67 135.05 12.62 135.14 12.15C135.2 11.86 135.2 11.39 135.14 11.11C135.05 10.63 134.96 10.59 134.19 10.59L133.33 10.59C133.33 9.15 133.25 8.86 133.05 8.79C132.89 8.74 132.53 8.7 132.24 8.71C131.96 8.72 131.6 8.77 131.45 8.82ZM64.49 9.21C64.17 9.28 64.12 9.43 64.16 10.13L64.2 10.97C62.68 10.96 62.58 11.01 62.47 11.48C62.4 11.77 62.38 12.24 62.42 12.53C62.49 13 62.57 13.05 63.35 13.05C64.11 13.05 64.22 13.1 64.3 13.52C64.35 13.78 64.34 14.14 64.27 14.32C64.2 14.5 63.82 15.01 63.42 15.46C62.96 15.96 62.65 16.52 62.57 16.97C62.51 17.36 62.51 17.93 62.58 18.25C62.65 18.56 62.91 19.07 63.16 19.38L63.62 19.95C62.68 20.88 62.66 20.89 61.59 20.63C61 20.49 59.45 20.03 58.14 19.62C56.84 19.2 55.22 18.75 54.55 18.61C53.87 18.46 52.8 18.34 52.18 18.34C51.55 18.34 50.62 18.46 50.09 18.62C49.57 18.77 48.82 19.18 48.42 19.52C48.02 19.86 47.47 20.6 47.2 21.18C46.8 22.01 46.7 22.5 46.7 23.63C46.7 24.5 46.84 25.46 47.05 26.09C47.24 26.66 48.06 28.41 48.87 29.97C49.68 31.53 50.52 33.34 50.74 33.99C50.96 34.64 51.14 35.55 51.14 36.02L51.14 36.87L79.26 36.87C79.45 35.18 79.69 34.18 79.91 33.56C80.13 32.94 80.85 31.45 81.5 30.25C82.16 29.06 82.88 27.61 83.1 27.04C83.33 26.47 83.61 25.53 83.73 24.96C83.85 24.39 83.9 23.53 83.85 23.07C83.8 22.6 83.55 21.75 83.31 21.19C83.04 20.58 82.56 19.91 82.1 19.53C81.69 19.18 80.92 18.77 80.4 18.61C79.88 18.46 78.94 18.34 78.31 18.34C77.69 18.34 76.62 18.46 75.95 18.61C75.27 18.75 73.52 19.25 72.06 19.71C70.61 20.18 69.03 20.62 68.56 20.69C67.82 20.8 67.65 20.76 67.28 20.38C66.86 19.95 66.86 19.94 67.22 19.57C67.42 19.36 67.68 18.96 67.79 18.67C67.9 18.38 67.99 17.83 67.99 17.44C67.98 17.05 67.79 16.41 67.56 16.01C67.33 15.61 66.95 15.17 66.71 15.02C66.38 14.8 66.29 14.57 66.29 13.9L66.29 13.05C67.95 13.05 68 13.02 68.11 12.43C68.17 12.09 68.17 11.63 68.11 11.39C68.01 11.03 67.86 10.97 67.14 10.97L66.29 10.97C66.29 9.39 66.23 9.25 65.86 9.17C65.63 9.12 65.31 9.09 65.15 9.1C65 9.11 64.7 9.16 64.49 9.21Z" />
		<path class="shp1" d="M117.8 20.64C117.34 20.88 116.75 21.38 116.51 21.74C116.12 22.32 116.07 22.58 116.14 23.82C116.2 25.02 116.34 25.51 117.02 26.94C117.47 27.88 118.31 29.45 118.89 30.44C119.48 31.43 120.41 32.68 120.96 33.23C121.82 34.08 122.08 34.22 122.69 34.22C123.09 34.22 123.51 34.12 123.64 33.99C123.77 33.86 123.87 33.43 123.87 33.04C123.87 32.65 123.82 32.2 123.77 32.05C123.71 31.87 123.44 31.76 123.06 31.77C122.72 31.77 122.16 31.7 121.82 31.62C121.35 31.52 121.16 31.35 121.09 31.01C121.03 30.75 120.95 30.39 120.91 30.2C120.84 29.92 120.99 29.87 122.02 29.88L123.2 29.88C122.99 29.07 122.88 28.64 122.83 28.41C122.73 28.01 122.79 27.98 123.67 27.98C124.61 27.98 124.62 27.99 124.81 28.69C124.91 29.08 125 29.51 125 29.64C125 29.79 125.3 29.87 125.9 29.86C126.4 29.86 126.9 29.97 127.03 30.1C127.16 30.24 127.33 30.67 127.41 31.06L127.56 31.77C125.66 31.76 125.57 31.8 125.57 32.19C125.57 32.42 125.82 32.93 126.14 33.32C126.45 33.71 126.98 34.12 127.32 34.23C127.74 34.36 128.1 34.36 128.46 34.23C128.74 34.12 129.19 33.76 129.45 33.42C129.71 33.08 130.05 32.38 130.21 31.86C130.37 31.34 130.5 30.45 130.49 29.87C130.49 29.3 130.36 28.3 130.21 27.65C130.05 27 129.71 25.98 129.44 25.38C129.17 24.78 128.91 23.96 128.85 23.54L128.75 22.78C126.06 21.81 124.56 21.26 123.67 20.95C122.47 20.51 121.64 20.35 120.36 20.29C118.85 20.21 118.56 20.26 117.8 20.64ZM141.95 20.6C141.33 20.79 139.77 21.34 138.49 21.82C137.22 22.3 136.11 22.69 136.03 22.69C135.95 22.68 135.83 23.05 135.76 23.49C135.69 23.93 135.41 24.78 135.14 25.38C134.88 25.98 134.53 27 134.38 27.65C134.22 28.3 134.09 29.3 134.09 29.87C134.09 30.45 134.22 31.34 134.38 31.86C134.53 32.38 134.88 33.08 135.14 33.42C135.39 33.76 135.84 34.12 136.13 34.23C136.48 34.36 136.84 34.36 137.26 34.23C137.6 34.12 138.14 33.71 138.45 33.32C138.76 32.93 139.02 32.42 139.02 32.19C139.02 31.8 138.93 31.76 138.02 31.77L137.03 31.77C137.25 30.67 137.42 30.24 137.55 30.1C137.68 29.97 138.18 29.86 138.68 29.86C139.28 29.87 139.58 29.79 139.58 29.64C139.58 29.51 139.67 29.08 139.77 28.69C139.96 27.99 139.97 27.98 140.91 27.98C141.79 27.98 141.85 28.01 141.76 28.41C141.7 28.64 141.6 29.07 141.52 29.36L141.38 29.88L143.75 29.87C143.58 30.68 143.49 31.04 143.46 31.2C143.42 31.35 143.11 31.55 142.76 31.62C142.42 31.7 141.86 31.77 141.52 31.77C141.14 31.76 140.87 31.87 140.81 32.05C140.76 32.2 140.72 32.65 140.72 33.04C140.71 33.43 140.82 33.86 140.95 33.99C141.09 34.12 141.52 34.23 141.92 34.23C142.53 34.22 142.78 34.08 143.63 33.23C144.18 32.68 145.11 31.43 145.69 30.44C146.27 29.45 147.12 27.88 147.56 26.94C148.25 25.51 148.39 25.02 148.45 23.82C148.51 22.58 148.47 22.32 148.08 21.74C147.83 21.38 147.25 20.89 146.78 20.65C146.11 20.32 145.63 20.23 144.51 20.24C143.73 20.25 142.58 20.41 141.95 20.6ZM50.76 21.03C50.29 21.27 49.71 21.76 49.46 22.12C49.07 22.71 49.03 22.95 49.1 24.2C49.16 25.36 49.32 25.92 49.93 27.23C50.35 28.11 51.19 29.68 51.8 30.72C52.41 31.76 53.36 33.06 53.92 33.61C54.87 34.55 54.97 34.6 55.82 34.55L56.72 34.51C56.81 33.33 56.79 32.8 56.74 32.57C56.65 32.21 56.5 32.14 55.82 32.14C55.38 32.14 54.82 32.07 54.58 32C54.32 31.92 54.1 31.66 54.04 31.39C53.99 31.13 53.91 30.76 53.86 30.58C53.8 30.29 53.94 30.25 55.02 30.25C56.22 30.25 56.25 30.24 56.09 29.83C56 29.59 55.87 29.17 55.8 28.88C55.68 28.37 55.69 28.36 56.63 28.36C57.56 28.36 57.58 28.37 57.76 29.07C57.87 29.46 57.95 29.89 57.95 30.02C57.95 30.15 58.08 30.29 58.24 30.35C58.39 30.4 58.8 30.39 59.14 30.33C59.54 30.25 59.83 30.3 59.99 30.47C60.12 30.61 60.29 31.04 60.37 31.44L60.51 32.15C58.61 32.14 58.52 32.18 58.53 32.57C58.53 32.8 58.77 33.29 59.05 33.64C59.33 34 59.84 34.4 60.18 34.54C60.52 34.68 60.92 34.79 61.08 34.79C61.24 34.79 61.67 34.51 62.04 34.17C62.44 33.82 62.87 33.15 63.08 32.57C63.28 32.02 63.45 31.09 63.45 30.49C63.45 29.89 63.37 28.98 63.28 28.46C63.18 27.94 62.8 26.72 62.42 25.76C62.05 24.8 61.74 23.82 61.74 23.59C61.75 23.23 61.54 23.09 60.56 22.75C59.91 22.52 58.27 21.94 56.91 21.47C54.84 20.75 54.23 20.61 53.03 20.61C51.93 20.61 51.42 20.7 50.76 21.03ZM75.57 20.81C75.2 20.89 73.52 21.46 71.83 22.06C68.87 23.12 68.76 23.18 68.75 23.68C68.75 23.97 68.46 24.9 68.11 25.76C67.75 26.62 67.37 27.83 67.25 28.46C67.14 29.08 67.04 29.97 67.04 30.44C67.04 30.91 67.17 31.72 67.33 32.24C67.49 32.76 67.83 33.46 68.09 33.8C68.35 34.13 68.79 34.5 69.08 34.61C69.43 34.74 69.79 34.74 70.17 34.62C70.48 34.52 71.02 34.13 71.35 33.76C71.7 33.38 71.97 32.88 71.97 32.61C71.97 32.17 71.91 32.14 70.98 32.15L69.98 32.15C70.21 31.04 70.38 30.61 70.51 30.47C70.66 30.3 70.96 30.25 71.4 30.32C71.77 30.38 72.16 30.37 72.28 30.29C72.39 30.22 72.53 29.99 72.59 29.78C72.65 29.57 72.74 29.17 72.8 28.88C72.91 28.4 72.98 28.36 73.86 28.36C74.75 28.36 74.8 28.39 74.71 28.79C74.66 29.02 74.55 29.45 74.47 29.74L74.34 30.26C76.17 30.25 76.7 30.32 76.7 30.39C76.7 30.47 76.62 30.83 76.52 31.2C76.41 31.63 76.2 31.91 75.91 32C75.67 32.07 75.17 32.14 74.8 32.14C74.43 32.14 74.03 32.25 73.9 32.38C73.77 32.51 73.67 32.96 73.67 33.37C73.67 33.79 73.78 34.24 73.91 34.37C74.04 34.5 74.45 34.61 74.81 34.61C75.31 34.61 75.68 34.43 76.3 33.9C76.76 33.5 77.56 32.54 78.07 31.76C78.59 30.98 79.54 29.29 80.18 28.01C81.25 25.85 81.35 25.55 81.41 24.23C81.46 22.97 81.42 22.7 81.03 22.12C80.78 21.76 80.2 21.27 79.73 21.03C79.07 20.7 78.59 20.61 77.56 20.63C76.83 20.64 75.93 20.72 75.57 20.81Z" />
		<path class="shp3" d="M74.94 56.48L50.35 81.02C52.24 84.83 53.45 87.08 54.26 88.49C55.06 89.89 56.51 92.23 57.48 93.68C58.44 95.14 60.01 97.37 60.96 98.65C61.91 99.92 62.75 101 62.83 101.05C62.91 101.1 71.28 92.74 81.42 82.47C91.57 72.21 99.98 63.81 100.11 63.81C100.24 63.81 103.99 67.43 108.46 71.86C112.92 76.29 121.2 84.56 126.85 90.25L137.12 100.59C137.7 99.93 138.76 98.5 139.84 96.99C140.92 95.49 142.4 93.32 143.13 92.17C143.86 91.03 145.01 89.11 145.69 87.92C146.37 86.72 147.41 84.77 148 83.57L149.08 81.4L99.53 31.95L74.94 56.48Z" />
		<path class="shp2" d="M117.99 39.61L117.99 40.84L146.59 40.84L146.59 38.38L117.99 38.38L117.99 39.61ZM50.95 39.99L50.95 41.22L79.55 41.22L79.55 38.76L50.95 38.76L50.95 39.99Z" />
		<path class="shp1" d="M83.97 81.72C75.13 90.67 67.03 98.89 65.98 100L64.05 102C67.15 105.67 70.1 108.78 72.61 111.28C75.12 113.78 78.07 116.6 79.17 117.53C80.26 118.47 82.18 120.05 83.43 121.03C84.68 122.02 86.47 123.38 87.41 124.06C88.34 124.73 89.92 125.83 90.91 126.49C91.9 127.15 93.65 128.26 94.79 128.95C95.94 129.64 97.6 130.6 98.48 131.08L100.09 131.96C103.47 130.03 105.77 128.6 107.39 127.53C109 126.46 111.73 124.55 113.45 123.27C115.17 121.99 117.47 120.22 118.56 119.33C119.65 118.45 121.83 116.6 123.39 115.23C124.95 113.86 127.46 111.47 128.96 109.92C130.46 108.38 132.59 106.06 133.69 104.77C134.8 103.48 135.81 102.27 135.94 102.08C136.15 101.76 136 101.52 134.58 99.97C133.71 99.01 126.69 91.88 118.99 84.14C111.28 76.39 103.87 69.02 102.51 67.75L100.04 65.45L83.97 81.72Z" />
		<path class="shp0" d="M27.65 75.13C26.97 75.37 25.74 75.91 24.91 76.33C24.07 76.75 22.58 77.58 21.59 78.18C20.6 78.78 18.47 80.16 16.86 81.26C14.97 82.54 13.34 83.49 12.31 83.9C11.43 84.26 9.93 84.75 9 85C8.06 85.24 6.87 85.49 6.34 85.56C5.82 85.63 4.89 85.82 4.27 86C3.51 86.21 2.88 86.55 2.31 87.07C1.79 87.54 1.22 88.35 0.78 89.23C0.13 90.57 0.09 90.74 0.09 92.54C0.09 94.26 0.15 94.55 0.65 95.58C0.99 96.28 1.67 97.18 2.45 97.94C3.13 98.61 4.09 99.38 4.57 99.64L5.45 100.11C6.58 99.15 7.68 98.26 8.62 97.52C9.55 96.78 11 95.73 11.84 95.19C12.67 94.65 13.8 93.98 14.35 93.71L15.34 93.21C17.15 94.6 18.09 95.48 18.6 96.05C19.1 96.62 19.51 97.13 19.51 97.18C19.51 97.23 17.86 98.05 15.86 98.99C12.8 100.43 12.23 100.76 12.28 101.07C12.31 101.27 12.88 102.8 13.54 104.46C14.2 106.13 15.18 108.47 15.71 109.66C16.25 110.86 17.44 113.28 18.35 115.05C19.27 116.82 20.56 119.16 21.21 120.25C21.87 121.34 23.1 123.3 23.96 124.6C24.82 125.9 26.22 127.9 27.08 129.04C27.95 130.18 29.22 131.8 29.92 132.63C30.62 133.47 32.08 135.12 33.17 136.32C34.26 137.52 36.26 139.51 37.61 140.75C38.95 142 41.16 143.89 42.52 144.97C43.87 146.04 46.09 147.67 47.44 148.59C48.8 149.51 50.8 150.79 51.89 151.45C52.99 152.11 55.29 153.35 57.01 154.21C58.73 155.06 60.9 156.08 61.84 156.47C62.77 156.85 64.44 157.5 65.53 157.91C66.62 158.32 69.35 159.21 71.59 159.88C73.83 160.55 77.03 161.43 78.69 161.83C80.36 162.24 83.24 162.94 85.09 163.39C86.94 163.84 88.46 164.29 88.46 164.4C88.46 164.5 88.29 164.97 88.08 165.44C87.87 165.91 87.7 166.65 87.69 167.09C87.69 167.53 87.76 168.09 87.85 168.32C87.95 168.55 88.32 169.04 88.69 169.41C89.06 169.77 90.12 170.47 91.04 170.95C91.96 171.44 93.48 172.07 94.41 172.35C95.88 172.79 96.55 172.88 99.24 172.95C101.84 173.02 102.67 172.97 104.17 172.66C105.16 172.46 106.61 172.03 107.39 171.7C108.17 171.37 109.32 170.79 109.94 170.39C110.57 170 111.34 169.35 111.65 168.94C112.11 168.35 112.22 168.03 112.22 167.25C112.22 166.67 112.05 165.89 111.79 165.3C111.56 164.75 111.38 164.27 111.41 164.23C111.44 164.19 114.23 163.5 117.61 162.7C121 161.9 125.56 160.7 127.75 160.05C129.93 159.39 132.83 158.45 134.19 157.96C135.54 157.47 137.63 156.65 138.83 156.13C140.02 155.61 141.9 154.73 142.99 154.19C144.09 153.64 145.83 152.71 146.88 152.11C147.92 151.51 149.88 150.3 151.23 149.41C152.59 148.52 154.38 147.29 155.21 146.66C156.04 146.04 157.62 144.8 158.71 143.91C159.81 143.02 162.01 141.01 163.61 139.44C165.21 137.88 167.31 135.71 168.27 134.62C169.23 133.53 170.76 131.7 171.67 130.55C172.58 129.41 174.37 126.9 175.66 124.98C176.95 123.05 178.66 120.33 179.46 118.93C180.26 117.52 181.54 115.14 182.29 113.63C183.05 112.12 184.11 109.87 184.66 108.62C185.2 107.37 186.11 105.18 186.67 103.75C187.23 102.32 187.69 101.05 187.7 100.92C187.7 100.79 187.3 100.5 186.8 100.27C186.3 100.04 184.61 99.25 183.05 98.51L180.21 97.17C182.26 95.11 183.26 94.22 183.76 93.86L184.66 93.21C186.64 94.3 187.94 95.1 188.83 95.69C189.71 96.28 191.31 97.5 192.38 98.39C193.44 99.29 194.4 100.02 194.51 100.02C194.61 100.02 195.14 99.73 195.69 99.38C196.24 99.02 197.2 98.19 197.83 97.53C198.6 96.73 199.13 95.96 199.43 95.2C199.79 94.32 199.89 93.7 199.9 92.45C199.9 90.96 199.85 90.72 199.21 89.42C198.83 88.65 198.15 87.65 197.7 87.2C197.25 86.75 196.53 86.26 196.12 86.11C195.7 85.97 194.55 85.71 193.56 85.55C192.57 85.39 191.12 85.08 190.34 84.86C189.56 84.64 188.28 84.2 187.5 83.87C186.72 83.54 184.29 82.08 182.1 80.63C179.91 79.18 177.14 77.46 175.95 76.82C174.75 76.18 173.11 75.43 172.3 75.17C171.28 74.83 170.42 74.68 169.46 74.68C168.62 74.68 167.61 74.82 166.86 75.05C166.18 75.26 164.92 75.83 164.07 76.33C163.21 76.83 161.85 77.76 161.04 78.4C160.23 79.04 158.66 80.49 157.56 81.62C156.46 82.74 155.02 84.39 154.37 85.27C153.72 86.15 152.89 87.47 152.54 88.2C152.19 88.93 151.77 90.12 151.62 90.85C151.46 91.58 151.33 92.45 151.33 92.79C151.33 93.12 151.43 93.85 151.55 94.39C151.7 95.08 151.98 95.61 152.45 96.11C152.83 96.52 153.41 96.9 153.79 96.99C154.15 97.08 155.22 97.34 156.16 97.57C157.09 97.8 158.5 98.24 159.28 98.54C160.06 98.85 161.25 99.4 161.93 99.77C162.61 100.13 163.69 100.83 164.34 101.31C164.99 101.8 165.52 102.24 165.53 102.29C165.53 102.34 164.84 103.57 163.99 105.03C163.14 106.48 161.68 108.82 160.74 110.23C159.8 111.63 158.38 113.63 157.6 114.67C156.81 115.71 155.34 117.54 154.34 118.74C153.34 119.93 151.5 121.93 150.26 123.18C149.02 124.43 147.16 126.18 146.12 127.07C145.08 127.97 143.46 129.27 142.52 129.98C141.58 130.68 140 131.78 139.02 132.43C138.03 133.07 136.53 133.99 135.7 134.46C134.87 134.94 133.59 135.63 132.86 135.99C132.13 136.36 130.51 137.08 129.26 137.61C128.01 138.13 125.92 138.91 124.62 139.33C123.32 139.75 119.61 140.73 116.38 141.51C113.15 142.28 109.47 143.22 108.19 143.59C106.92 143.96 105.53 144.43 105.11 144.64C104.7 144.85 104.23 145.21 104.07 145.44C103.91 145.68 103.79 146.19 103.79 146.58C103.79 146.97 103.87 147.5 103.98 147.76C104.08 148.02 104.64 148.74 105.21 149.37C106.15 150.39 106.23 150.54 106.01 150.9C105.88 151.12 105.35 151.54 104.83 151.84C104.31 152.13 103.33 152.52 102.65 152.69C101.73 152.92 100.94 152.98 99.53 152.91C98.33 152.84 97.21 152.66 96.5 152.42C95.87 152.2 95.07 151.83 94.71 151.59C94.36 151.36 93.99 151.03 93.88 150.88C93.74 150.66 93.97 150.26 94.86 149.18C95.62 148.25 96.06 147.53 96.13 147.1C96.19 146.73 96.16 146.22 96.06 145.96C95.97 145.7 95.62 145.26 95.29 144.97C94.95 144.67 94.04 144.25 93.13 143.97C92.28 143.71 88.97 142.86 85.8 142.09C82.62 141.31 79.04 140.41 77.84 140.09C76.64 139.76 74.6 139.12 73.3 138.65C71.99 138.18 69.56 137.14 67.9 136.34C66.23 135.53 63.97 134.34 62.88 133.68C61.79 133.02 59.95 131.82 58.81 131.01C57.66 130.19 55.83 128.79 54.73 127.89C53.64 126.98 51.46 124.96 49.89 123.39C48.32 121.82 46.19 119.51 45.16 118.26C44.12 117.02 42.59 115.06 41.74 113.92C40.9 112.77 39.57 110.86 38.79 109.66C38 108.47 36.69 106.35 35.87 104.95L34.38 102.42C35.7 101.3 36.72 100.6 37.5 100.13C38.28 99.67 39.56 99.03 40.34 98.72C41.12 98.41 42.57 97.93 43.56 97.66C44.55 97.39 45.7 97.07 46.12 96.96C46.53 96.85 47.14 96.49 47.47 96.17C47.79 95.84 48.15 95.24 48.27 94.82C48.39 94.4 48.48 93.45 48.48 92.69C48.48 91.75 48.34 90.86 48.02 89.86C47.76 89.05 47.16 87.75 46.67 86.97C46.19 86.19 45.32 84.96 44.73 84.23C44.15 83.5 42.9 82.14 41.96 81.19C41.02 80.25 39.56 78.94 38.73 78.29C37.9 77.63 36.66 76.77 35.98 76.36C35.31 75.96 34.16 75.42 33.43 75.16C32.41 74.8 31.73 74.69 30.49 74.69C29.29 74.69 28.57 74.8 27.65 75.13Z" />
		<path class="shp3" d="M29.26 75.64C28.74 75.73 27.76 76.08 27.08 76.43C26.38 76.78 25.36 77.53 24.7 78.18C23.88 79 23.44 79.62 23.14 80.4C22.89 81.07 22.73 81.91 22.73 82.58C22.73 83.17 22.77 83.86 22.82 84.09C22.88 84.32 23.04 84.51 23.2 84.51C23.36 84.51 24.1 84.1 24.86 83.59C25.61 83.08 26.81 82.14 27.51 81.51L28.79 80.36C29.82 81.98 29.93 82.35 29.93 83.19C29.93 83.88 29.79 84.49 29.53 84.99C29.31 85.4 28.82 86.07 28.44 86.47C28.06 86.86 27.19 87.56 26.52 88C25.84 88.45 24.52 89.2 23.58 89.66C22.64 90.13 21.28 90.72 20.55 90.99C19.82 91.25 18.56 91.71 17.75 92.01C16.95 92.31 16.28 92.59 16.28 92.64C16.28 92.7 16.63 92.99 17.07 93.31C17.5 93.62 18.49 94.53 19.25 95.34C20.21 96.34 20.75 96.78 20.98 96.72C21.16 96.67 21.82 96.26 22.44 95.81C23.24 95.23 23.92 94.49 24.72 93.32C25.34 92.4 26.11 91.42 26.42 91.15C26.73 90.87 27.33 90.53 27.75 90.39C28.21 90.24 28.77 90.2 29.17 90.28C29.53 90.35 30.3 90.64 30.87 90.92C31.44 91.2 32.85 91.96 34 92.6C35.14 93.25 36.87 94.12 37.83 94.53C38.79 94.95 40.33 95.51 41.24 95.78C42.26 96.09 43.41 96.29 44.22 96.3C45.23 96.32 45.7 96.24 46.19 95.95C46.54 95.74 46.99 95.28 47.19 94.91C47.44 94.43 47.54 93.86 47.54 92.79C47.54 91.67 47.42 90.99 47.04 89.95C46.76 89.2 46.28 88.15 45.98 87.63C45.67 87.11 45.07 86.22 44.65 85.65C44.22 85.08 42.89 83.6 41.68 82.37C40.48 81.14 38.81 79.59 37.97 78.93C37.14 78.28 35.73 77.36 34.85 76.88C33.96 76.41 32.68 75.89 32.01 75.73C31.33 75.58 30.65 75.45 30.49 75.46C30.34 75.48 29.78 75.56 29.26 75.64ZM167.8 75.73C167.23 75.89 166.16 76.3 165.44 76.65C164.71 77.01 163.39 77.83 162.5 78.48C161.61 79.13 159.86 80.69 158.61 81.94C157.35 83.2 155.88 84.83 155.34 85.55C154.79 86.28 153.96 87.64 153.49 88.58C152.97 89.61 152.54 90.79 152.41 91.56C152.23 92.56 152.23 93.06 152.42 93.92C152.57 94.63 152.84 95.19 153.18 95.53C153.49 95.85 154.04 96.12 154.59 96.24C155.2 96.37 155.9 96.36 156.77 96.22C157.47 96.11 158.73 95.8 159.56 95.53C160.4 95.25 162.49 94.31 164.2 93.43C165.92 92.55 168 91.48 168.83 91.06C170.11 90.39 170.5 90.28 171.51 90.28C172.55 90.28 172.78 90.35 173.42 90.86C173.82 91.19 174.74 92.31 175.47 93.35C176.2 94.4 177.14 95.53 177.56 95.86C177.97 96.19 178.55 96.58 178.84 96.73C179.32 96.97 179.38 96.96 179.61 96.57C179.75 96.33 180.5 95.52 181.27 94.75C182.04 93.98 182.91 93.22 183.19 93.05C183.48 92.88 183.72 92.7 183.72 92.64C183.72 92.59 183.49 92.44 183.2 92.3C182.91 92.16 181.82 91.76 180.78 91.42C179.73 91.08 178.07 90.42 177.08 89.96C176.09 89.5 174.67 88.73 173.91 88.24C173.16 87.75 172.15 86.97 171.69 86.5C171.22 86.03 170.66 85.29 170.46 84.85C170.25 84.4 170.08 83.7 170.08 83.29C170.08 82.87 170.24 82.19 170.43 81.77C170.62 81.36 170.91 80.91 171.09 80.78C171.36 80.58 171.6 80.71 172.77 81.71C173.53 82.35 174.79 83.3 175.57 83.8C176.98 84.72 176.99 84.72 177.15 84.29C177.24 84.05 177.32 83.34 177.33 82.72C177.34 82.03 177.21 81.17 176.99 80.54C176.75 79.87 176.29 79.15 175.67 78.49C175.14 77.93 174.25 77.2 173.67 76.86C173.1 76.52 172.21 76.11 171.69 75.95C171.16 75.79 170.31 75.61 169.79 75.55C169.23 75.49 168.42 75.57 167.8 75.73ZM20.45 80C19.15 80.84 17.36 82.04 16.48 82.67C15.59 83.31 14.31 84.07 13.64 84.38C12.96 84.69 11.68 85.18 10.8 85.47C9.91 85.77 8.16 86.19 6.91 86.41C5.66 86.63 4.28 86.97 3.84 87.17C3.34 87.4 2.78 87.88 2.37 88.44C2.01 88.93 1.53 89.8 1.31 90.38C1.09 90.95 0.91 91.88 0.9 92.46C0.89 93.03 1.03 93.92 1.2 94.44C1.37 94.96 1.88 95.85 2.33 96.43C2.78 97 3.63 97.81 4.21 98.22L5.28 98.98C8.31 96.51 10.08 95.2 11.17 94.49C12.27 93.77 14.02 92.77 15.06 92.26C16.1 91.75 17.85 91.03 18.94 90.66C20.03 90.28 21.97 89.47 23.25 88.85C24.52 88.24 25.53 87.64 25.47 87.54C25.42 87.44 25.19 87.35 24.95 87.36C24.72 87.36 24.23 87.17 23.87 86.93C23.51 86.69 22.98 86.16 22.69 85.74C22.33 85.23 22.11 84.6 21.99 83.76C21.89 83.01 21.89 82.09 22 81.4C22.1 80.77 22.39 79.88 22.65 79.41C22.91 78.94 23.11 78.54 23.11 78.51C23.11 78.49 23.04 78.47 22.96 78.47C22.89 78.48 21.76 79.17 20.45 80ZM177.12 78.8C177.16 78.87 177.38 79.32 177.61 79.79C177.84 80.26 178.08 81.19 178.15 81.87C178.22 82.57 178.18 83.52 178.05 84.09C177.94 84.64 177.63 85.4 177.38 85.79C177.12 86.18 176.59 86.69 176.19 86.92C175.8 87.15 175.28 87.34 175.05 87.34C174.81 87.35 174.65 87.45 174.68 87.59C174.71 87.72 175.67 88.29 176.81 88.86C177.95 89.44 179.78 90.19 180.87 90.54C181.97 90.89 183.75 91.65 184.85 92.22C185.94 92.79 187.56 93.73 188.45 94.3C189.33 94.87 190.57 95.73 191.19 96.2C191.82 96.68 192.82 97.5 193.43 98.02C194.5 98.95 194.55 98.97 195.04 98.7C195.32 98.54 196.11 97.86 196.79 97.18C197.47 96.51 198.24 95.53 198.49 95.01C198.85 94.26 198.95 93.76 198.95 92.55C198.96 91.25 198.88 90.88 198.4 89.9C198.09 89.28 197.5 88.4 197.07 87.96C196.65 87.51 196.05 87.06 195.74 86.97C195.43 86.87 194.19 86.61 192.99 86.4C191.79 86.18 189.92 85.71 188.83 85.34C187.73 84.97 186.39 84.45 185.85 84.17C185.31 83.89 183.18 82.53 181.12 81.15C179.06 79.77 177.29 78.64 177.2 78.65C177.11 78.65 177.07 78.72 177.12 78.8Z" />
		<path class="shp2" d="M99.92 80.75C99.65 80.89 99.56 81.12 99.59 81.69L99.62 82.43L97.92 82.43L97.92 84.51C99.7 84.61 99.72 84.62 99.77 85.27C99.82 85.83 99.71 86.05 99.07 86.69C98.66 87.11 98.23 87.68 98.12 87.97C98.01 88.25 97.92 88.74 97.92 89.05C97.92 89.36 98.09 89.96 98.3 90.38C98.5 90.79 98.76 91.17 98.86 91.23C98.98 91.28 98.92 91.52 98.72 91.82C98.43 92.25 98.3 92.3 97.63 92.21C97.22 92.15 95.6 91.71 94.03 91.22C92.47 90.74 90.68 90.23 90.06 90.08C89.43 89.93 88.37 89.81 87.69 89.81C87.01 89.81 86.16 89.89 85.8 89.99C85.43 90.09 84.71 90.45 84.19 90.79C83.51 91.24 83.09 91.71 82.71 92.46C82.26 93.32 82.17 93.74 82.15 94.91C82.15 95.74 82.28 96.8 82.47 97.47C82.65 98.09 83.51 99.96 84.38 101.63C85.24 103.29 86.09 105.12 86.25 105.69C86.42 106.26 86.56 107.09 86.55 107.53L86.55 108.34L114.68 108.34C114.9 106.58 115.19 105.49 115.47 104.79C115.75 104.09 116.51 102.54 117.16 101.34C117.81 100.15 118.54 98.61 118.78 97.94C119.1 97.03 119.21 96.29 119.21 95.1C119.22 93.76 119.14 93.34 118.75 92.56C118.49 92.05 117.94 91.35 117.52 91C117.1 90.65 116.38 90.24 115.91 90.09C115.44 89.93 114.5 89.81 113.83 89.81C113.15 89.81 112.04 89.93 111.36 90.07C110.69 90.22 108.9 90.73 107.39 91.21C105.88 91.7 104.32 92.15 103.94 92.23C103.34 92.34 103.16 92.29 102.75 91.89C102.28 91.42 102.28 91.41 102.63 91.04C102.82 90.83 103.08 90.47 103.2 90.23C103.31 90 103.41 89.47 103.41 89.05C103.41 88.64 103.26 87.98 103.08 87.6C102.9 87.22 102.51 86.73 102.22 86.51C101.79 86.19 101.7 85.98 101.7 85.32L101.7 84.51C103.15 84.51 103.44 84.43 103.5 84.23C103.56 84.08 103.6 83.73 103.6 83.47C103.6 83.21 103.56 82.87 103.5 82.72C103.44 82.52 103.15 82.43 102.56 82.43L101.7 82.43C101.7 80.86 101.64 80.72 101.28 80.64C101.04 80.59 100.72 80.55 100.57 80.55C100.41 80.55 100.12 80.64 99.92 80.75Z" />
		<path class="shp3" d="M27.54 82.58C27.03 83.05 25.97 83.86 25.19 84.36C24.41 84.87 23.68 85.32 23.58 85.36C23.48 85.4 23.65 85.65 23.96 85.92C24.27 86.19 24.78 86.46 25.09 86.52C25.41 86.58 26 86.53 26.42 86.39C26.84 86.25 27.47 85.88 27.83 85.57C28.18 85.25 28.64 84.6 28.84 84.14C29.07 83.61 29.17 83.07 29.1 82.72C29.04 82.41 28.88 82.05 28.73 81.93C28.53 81.76 28.28 81.9 27.54 82.58ZM171.21 82.04C171.09 82.24 171 82.71 171.01 83.08C171.02 83.46 171.19 84.1 171.4 84.51C171.61 84.93 172.14 85.53 172.59 85.84C173.03 86.16 173.65 86.47 173.96 86.53C174.27 86.59 174.82 86.55 175.19 86.43C175.55 86.32 176.02 86.05 176.23 85.82C176.44 85.59 176.52 85.38 176.42 85.34C176.32 85.31 175.63 84.88 174.91 84.4C174.18 83.92 173.1 83.11 172.51 82.6C171.49 81.72 171.42 81.69 171.21 82.04Z" />
		<path class="shp1" d="M166.33 92.76C164.38 93.75 162.68 94.52 162.55 94.46C162.42 94.4 162.31 94.45 162.32 94.58C162.32 94.71 162.25 94.76 162.17 94.68C162.09 94.6 161.91 94.66 161.76 94.8C161.61 94.95 160.65 95.42 159.63 95.84C158.6 96.27 157.68 96.62 157.58 96.62C157.47 96.62 157.39 96.68 157.39 96.76C157.39 96.84 157.92 97.06 158.57 97.26C159.22 97.47 160.65 98.08 161.74 98.63C162.84 99.17 164.35 100.09 165.1 100.67L166.48 101.72C167.02 100.77 167.75 99.41 168.44 98.08C169.13 96.75 169.78 95.67 169.89 95.67C169.99 95.67 170.03 95.58 169.98 95.48C169.93 95.38 169.97 95.29 170.08 95.29C170.18 95.29 170.22 95.21 170.17 95.1C170.12 95 170.16 94.91 170.27 94.91C170.37 94.91 170.41 94.83 170.36 94.72C170.31 94.62 170.35 94.54 170.45 94.54C170.56 94.54 170.6 94.45 170.55 94.35C170.5 94.24 170.67 93.65 170.93 93.02C171.19 92.4 171.4 91.68 171.4 91.42C171.4 90.99 171.36 90.96 170.93 91.13C170.61 91.26 170.42 91.26 170.36 91.13C170.31 91.03 170.18 90.94 170.07 90.94C169.97 90.94 168.28 91.76 166.33 92.76Z" />
		<path class="shp3" d="M27.1 91.8C26.65 92.21 25.93 93.06 25.52 93.68C25.1 94.31 24.49 95.1 24.17 95.45C23.84 95.8 23.24 96.32 22.82 96.61C22.41 96.9 20.19 98.01 17.9 99.07C15.61 100.14 13.65 101.09 13.54 101.18C13.42 101.3 13.47 101.69 13.71 102.34C13.9 102.88 14.61 104.65 15.28 106.26C15.95 107.87 17.3 110.81 18.28 112.78C19.25 114.76 20.75 117.56 21.6 119.02C22.46 120.48 23.84 122.69 24.68 123.94C25.51 125.18 27.02 127.31 28.03 128.66C29.05 130.01 30.72 132.1 31.75 133.29C32.78 134.48 34.73 136.57 36.08 137.92C37.44 139.28 39.53 141.22 40.72 142.25C41.92 143.27 43.84 144.81 44.98 145.66C46.13 146.52 47.83 147.73 48.77 148.36C49.71 148.98 51.43 150.06 52.6 150.75C53.78 151.45 55.91 152.6 57.34 153.32C58.77 154.03 60.97 155.05 62.22 155.57C63.47 156.1 65.47 156.88 66.67 157.31C67.86 157.73 70.55 158.59 72.63 159.2C74.72 159.82 79.22 160.99 82.64 161.79C86.05 162.6 88.88 163.22 88.91 163.17C88.95 163.12 89.63 160.9 90.43 158.25C91.23 155.6 92.13 152.6 92.44 151.59C92.93 149.95 93.11 149.61 94.03 148.61C94.61 147.99 95.12 147.24 95.19 146.96C95.25 146.63 95.18 146.28 95 146.01C94.83 145.78 94.55 145.51 94.37 145.41C94.18 145.32 92.84 144.9 91.38 144.48C89.92 144.06 86.05 143.07 82.77 142.29C79.48 141.5 75.65 140.46 74.24 139.99C72.84 139.51 70.54 138.61 69.13 137.99C67.72 137.36 65.74 136.39 64.73 135.83C63.71 135.27 62.09 134.32 61.13 133.73C60.16 133.13 58.39 131.91 57.2 131.02C56 130.13 54.12 128.63 53.03 127.68C51.94 126.74 49.93 124.83 48.57 123.44C47.22 122.05 45.46 120.15 44.67 119.21C43.89 118.27 42.53 116.57 41.66 115.43C40.79 114.28 39.21 112.03 38.15 110.42C37.08 108.81 35.43 106.13 34.47 104.46C33.52 102.8 31.75 99.44 30.55 96.99C29.34 94.55 28.26 92.21 28.15 91.8L27.94 91.05L27.1 91.8Z" />
		<path class="shp1" d="M28.41 91.32C28.41 91.43 28.66 92.15 28.98 92.93C29.29 93.71 29.5 94.43 29.45 94.54C29.4 94.64 29.44 94.72 29.55 94.72C29.65 94.72 29.69 94.81 29.64 94.91C29.59 95.02 29.63 95.1 29.73 95.1C29.84 95.1 29.88 95.19 29.83 95.29C29.78 95.4 29.83 95.48 29.96 95.48C30.08 95.48 30.12 95.54 30.05 95.62C29.98 95.7 30.05 95.85 30.2 95.95C30.35 96.06 31.13 97.38 31.92 98.88C32.72 100.39 33.41 101.67 33.45 101.72C33.49 101.77 33.84 101.55 34.23 101.23C34.62 100.92 35.5 100.28 36.17 99.83C36.85 99.37 38.09 98.68 38.92 98.3C39.75 97.91 40.93 97.44 41.53 97.25C42.13 97.06 42.62 96.86 42.62 96.8C42.62 96.75 42.26 96.6 41.81 96.46C41.37 96.32 40.19 95.87 39.2 95.45C38.21 95.04 37.32 94.58 37.22 94.43C37.11 94.28 36.96 94.22 36.88 94.3C36.8 94.38 36.73 94.33 36.74 94.2C36.74 94.07 36.66 94.01 36.55 94.06C36.45 94.11 36.36 94.07 36.36 93.97C36.36 93.86 36.28 93.82 36.17 93.87C36.07 93.93 35.98 93.88 35.98 93.78C35.98 93.68 35.9 93.63 35.8 93.68C35.69 93.74 35.61 93.69 35.61 93.59C35.61 93.49 35.52 93.44 35.42 93.5C35.31 93.55 35.23 93.51 35.23 93.4C35.23 93.3 35.14 93.25 35.04 93.31C34.93 93.36 34.85 93.32 34.85 93.21C34.85 93.11 34.76 93.07 34.66 93.12C34.55 93.17 33.64 92.78 32.62 92.24C31.09 91.44 30.57 91.26 29.59 91.2C28.89 91.16 28.41 91.21 28.41 91.32Z" />
		<path class="shp3" d="M171.78 91.56C171.78 91.79 170.94 93.73 169.92 95.86C168.89 97.99 167.3 101.1 166.38 102.76C165.47 104.42 163.97 106.98 163.06 108.43C162.14 109.89 160.56 112.24 159.53 113.66C158.51 115.09 156.73 117.38 155.59 118.77C154.44 120.15 152.27 122.52 150.76 124.04C149.25 125.55 147.09 127.55 145.96 128.48C144.83 129.41 142.92 130.89 141.7 131.76C140.48 132.63 138.51 133.92 137.31 134.63C136.11 135.34 133.9 136.51 132.39 137.24C130.88 137.96 128.79 138.87 127.75 139.25C126.7 139.64 125.04 140.2 124.05 140.51C123.06 140.82 119.61 141.7 116.38 142.48C113.15 143.26 109.49 144.2 108.24 144.57C106.99 144.94 105.73 145.36 105.45 145.51C105.16 145.65 104.87 145.97 104.81 146.2C104.75 146.43 104.75 146.86 104.81 147.14C104.87 147.43 105.38 148.15 105.94 148.75L106.96 149.84C109.97 159.95 110.9 162.98 110.96 163.09C111.04 163.23 113.05 162.83 117.14 161.85C120.47 161.05 124.69 159.96 126.52 159.43C128.34 158.9 130.98 158.06 132.39 157.58C133.79 157.1 135.84 156.34 136.93 155.9C138.03 155.45 139.9 154.62 141.1 154.05C142.3 153.49 144.34 152.43 145.64 151.7C146.95 150.97 148.91 149.8 150 149.09C151.09 148.39 152.88 147.16 153.98 146.37C155.07 145.58 156.99 144.08 158.24 143.04C159.49 142 161.61 140.09 162.95 138.78C164.29 137.48 166.33 135.35 167.48 134.05C168.62 132.75 170.41 130.58 171.45 129.23C172.49 127.88 174.22 125.45 175.28 123.84C176.35 122.23 177.74 120.02 178.36 118.93C178.99 117.83 180.1 115.79 180.84 114.39C181.57 112.98 182.74 110.56 183.44 109C184.13 107.44 185.12 105.1 185.63 103.8C186.14 102.5 186.56 101.39 186.56 101.34C186.56 101.29 185.05 100.54 183.2 99.67C181.34 98.8 179.32 97.85 178.69 97.55C178.07 97.26 177.18 96.69 176.72 96.3C176.26 95.9 175.44 94.89 174.91 94.06C174.37 93.23 173.6 92.23 173.19 91.84C172.78 91.44 172.29 91.12 172.11 91.13C171.9 91.13 171.78 91.28 171.78 91.56Z" />
		<path class="shp1" d="M86.19 92.49C85.72 92.73 85.17 93.17 84.95 93.46C84.64 93.9 84.56 94.28 84.56 95.56C84.56 97.12 84.57 97.14 85.85 99.66C86.56 101.05 87.63 102.87 88.22 103.7C88.81 104.53 89.6 105.4 89.96 105.64C90.37 105.91 90.9 106.08 91.34 106.07C91.88 106.07 92.09 105.97 92.25 105.64C92.4 105.34 92.4 104.99 92.25 104.41L92.05 103.61C90.14 103.53 89.7 103.42 89.58 103.23C89.48 103.08 89.4 102.67 89.4 102.33L89.39 101.72C91.16 101.72 91.67 101.7 91.67 101.67C91.67 101.65 91.54 101.24 91.38 100.77C91.22 100.31 91.09 99.9 91.09 99.88C91.1 99.85 91.52 99.83 92.05 99.83C92.98 99.83 92.99 99.84 93.18 100.54C93.28 100.93 93.37 101.35 93.37 101.48C93.37 101.61 93.5 101.76 93.66 101.81C93.81 101.87 94.22 101.86 94.55 101.79C95.06 101.69 95.23 101.75 95.5 102.12C95.69 102.37 95.84 102.81 95.83 103.09C95.83 103.59 95.79 103.61 94.89 103.61C94.11 103.61 93.94 103.67 93.94 103.94C93.94 104.12 94.11 104.55 94.32 104.89C94.53 105.23 94.89 105.63 95.12 105.78C95.36 105.93 95.8 106.11 96.12 106.18C96.57 106.27 96.82 106.19 97.33 105.76C97.68 105.46 98.14 104.88 98.36 104.46C98.63 103.93 98.76 103.23 98.82 102.1C98.87 100.91 98.79 100.15 98.52 99.17C98.32 98.44 97.93 97.33 97.66 96.71C97.39 96.09 97.17 95.36 97.16 95.1C97.16 94.68 96.97 94.56 95.41 94C94.44 93.66 92.93 93.11 92.05 92.79C90.84 92.36 90.01 92.19 88.73 92.13C87.22 92.06 86.93 92.1 86.19 92.49ZM110.13 92.56C109.3 92.81 107.64 93.38 106.44 93.83L104.26 94.65C104.08 95.81 103.76 96.74 103.44 97.47C103.12 98.19 102.76 99.43 102.64 100.21C102.52 100.99 102.46 102.05 102.51 102.57C102.56 103.09 102.8 103.9 103.03 104.37C103.26 104.84 103.59 105.38 103.76 105.57C103.93 105.76 104.29 106 104.55 106.1C104.84 106.2 105.24 106.2 105.59 106.09C105.9 105.98 106.43 105.6 106.77 105.23C107.12 104.85 107.39 104.35 107.39 104.08C107.39 103.64 107.32 103.61 106.44 103.61L105.49 103.61C105.66 102.51 105.79 102.11 105.9 102C106 101.9 106.48 101.81 106.97 101.81L107.86 101.81L108.43 99.82C110.16 99.83 110.22 99.86 110.13 100.25C110.07 100.49 109.97 100.92 109.89 101.2L109.75 101.73L112.12 101.72C111.95 102.82 111.82 103.22 111.71 103.33C111.61 103.43 111.09 103.55 110.55 103.59C110.01 103.63 109.45 103.75 109.32 103.87C109.18 103.99 109.08 104.42 109.08 104.84C109.08 105.26 109.19 105.7 109.32 105.84C109.46 105.97 109.88 106.07 110.27 106.07C110.85 106.07 111.16 105.91 111.85 105.27C112.33 104.82 113.16 103.78 113.69 102.95C114.22 102.12 115.13 100.46 115.71 99.27C116.66 97.33 116.77 96.96 116.82 95.68C116.88 94.44 116.83 94.17 116.44 93.59C116.2 93.23 115.62 92.74 115.15 92.5C114.5 92.17 113.99 92.08 112.97 92.09C112.14 92.09 111.08 92.27 110.13 92.56Z" />
		<path class="shp0" d="M173.98 102.33C173.82 102.78 173.72 103.18 173.77 103.23C173.82 103.28 173.96 103.23 174.1 103.1C174.28 102.93 174.66 103.01 175.76 103.45C176.54 103.76 177.26 104.08 177.37 104.17C177.48 104.26 176.62 104.65 175.33 105.1C174.11 105.53 172.94 105.88 172.73 105.88C172.46 105.88 172.24 106.12 172 106.68C171.8 107.13 171.67 107.53 171.71 107.58C171.74 107.63 171.91 107.55 172.08 107.39C172.28 107.2 172.55 107.15 172.89 107.24C173.16 107.31 174.14 107.71 175.05 108.14C176.17 108.66 176.76 109.04 176.87 109.33C177.02 109.73 177.05 109.71 177.44 108.95C177.66 108.51 177.8 108.11 177.75 108.05C177.69 108 177.5 108.05 177.32 108.17C177.06 108.34 176.65 108.23 175.32 107.65C174.41 107.25 173.73 106.86 173.81 106.78C173.89 106.7 175.18 106.23 176.68 105.74C178.17 105.24 179.4 104.75 179.4 104.65C179.39 104.55 178.34 103.99 177.05 103.42C175.13 102.56 174.71 102.3 174.68 101.95C174.66 101.72 174.57 101.53 174.47 101.53C174.37 101.53 174.15 101.89 173.98 102.33ZM28.85 107.3C28.93 107.48 28.81 107.7 28.53 107.91C28.29 108.09 27.31 108.63 26.35 109.09C24.85 109.83 24.56 109.91 24.24 109.71C23.88 109.48 23.87 109.49 24.12 110.09C24.27 110.42 24.5 110.94 24.64 111.23C24.79 111.52 24.97 111.75 25.05 111.75C25.13 111.74 25.15 111.61 25.09 111.46C25.03 111.27 25.27 111.01 25.76 110.7C26.17 110.44 27.16 109.91 27.94 109.52C29.16 108.91 29.42 108.84 29.74 109.05C29.94 109.18 30.11 109.24 30.11 109.19C30.11 109.14 29.88 108.62 29.59 108.05C29.31 107.48 28.99 107.01 28.9 107.01C28.81 107.01 28.78 107.14 28.85 107.3ZM170.22 110.04C169.72 110.98 169.32 111.78 169.32 111.84C169.32 111.89 169.47 111.89 169.65 111.83C169.84 111.78 170.76 112.16 171.78 112.71C172.77 113.24 173.72 113.82 173.9 113.99C174.07 114.16 174.18 114.44 174.13 114.62C174.09 114.81 174.1 114.96 174.15 114.96C174.2 114.96 174.64 114.21 175.13 113.3C175.61 112.39 176.12 111.46 176.26 111.22C176.49 110.84 176.46 110.75 176.04 110.32C175.78 110.06 175.5 109.89 175.43 109.95C175.35 110 175.41 110.26 175.57 110.52C175.83 110.96 175.82 111.07 175.43 111.84C175.19 112.31 174.89 112.74 174.76 112.8C174.63 112.86 174.16 112.73 173.72 112.51C173.28 112.3 172.87 112.03 172.82 111.93C172.77 111.83 172.9 111.49 173.11 111.17C173.38 110.77 173.59 110.63 173.86 110.7C174.07 110.75 174.24 110.71 174.24 110.61C174.24 110.5 173.9 110.25 173.48 110.04C173.07 109.83 172.66 109.7 172.59 109.75C172.51 109.8 172.57 109.97 172.73 110.14C172.98 110.4 172.97 110.5 172.63 111.08L172.25 111.72C170.85 110.93 170.45 110.64 170.45 110.56C170.45 110.48 170.63 110.12 170.83 109.76C171.04 109.39 171.32 109.08 171.45 109.07C171.58 109.06 171.79 109.06 171.92 109.07C172.05 109.08 172.16 109.01 172.16 108.9C172.16 108.8 171.99 108.63 171.78 108.53C171.57 108.42 171.34 108.34 171.26 108.34C171.18 108.34 170.71 109.1 170.22 110.04ZM30.2 110.37C30.21 110.81 29.98 111.02 28.41 111.98C27 112.85 26.5 113.06 26.09 112.98C25.8 112.92 25.57 112.92 25.57 112.97C25.57 113.02 25.8 113.42 26.09 113.86C26.6 114.63 26.61 114.64 26.66 114.14C26.7 113.72 26.99 113.46 28.27 112.68C29.13 112.16 29.85 111.8 29.88 111.88C29.9 111.96 29.54 113.32 29.07 114.91C28.56 116.64 28.3 117.83 28.41 117.89C28.51 117.94 29.6 117.38 30.82 116.65C32.05 115.92 33.13 115.33 33.24 115.33C33.34 115.33 33.54 115.43 33.67 115.57C33.8 115.7 33.9 115.72 33.9 115.62C33.9 115.51 33.66 115.05 33.38 114.58L32.87 113.73C32.69 114.74 32.41 115.01 31.34 115.66C30.48 116.2 30 116.4 29.97 116.24C29.94 116.1 30.18 115.06 30.5 113.92C30.82 112.77 31.13 111.67 31.18 111.46C31.22 111.25 31.09 110.8 30.88 110.46C30.67 110.13 30.43 109.85 30.35 109.85C30.27 109.85 30.2 110.08 30.2 110.37Z" />
		<path class="shp2" d="M86.36 111.46L86.36 112.69L115.15 112.69L115.15 110.23L86.36 110.23L86.36 111.46Z" />
		<path class="shp0" d="M168.3 113.44C167.87 114.1 167.84 114.24 168.06 114.53C168.2 114.71 168.71 115.61 169.2 116.52L170.08 118.17C169.12 118.17 168.08 118.04 167.14 117.88C166.2 117.72 165.42 117.65 165.4 117.74C165.37 117.82 164.93 118.44 164.41 119.11C163.88 119.79 163.45 120.41 163.45 120.49C163.45 120.56 163.57 120.58 163.73 120.53C163.94 120.46 164.25 120.92 164.87 122.14C165.34 123.08 165.7 123.88 165.67 123.93C165.65 123.98 164.82 123.79 163.85 123.5C162.57 123.14 162.03 122.89 161.95 122.64C161.85 122.34 161.73 122.42 161.13 123.16C160.74 123.64 160.42 124.07 160.42 124.13C160.42 124.18 160.65 124.17 160.94 124.11C161.23 124.04 162.11 124.17 162.97 124.4C163.81 124.63 165.04 124.98 165.72 125.19C166.4 125.4 166.97 125.52 167 125.46C167.02 125.4 166.63 124.52 166.11 123.51C165.6 122.5 165.01 121.22 164.79 120.67L164.39 119.68C164.98 118.95 165.22 118.73 165.29 118.73C165.37 118.73 166.03 119.17 166.76 119.7C167.49 120.24 168.36 120.95 168.69 121.27C169.02 121.59 169.26 121.96 169.21 122.09C169.17 122.22 169.19 122.33 169.27 122.33C169.35 122.33 169.6 122.03 169.84 121.66C170.07 121.3 170.27 120.96 170.27 120.91C170.27 120.86 170.09 120.86 169.89 120.91C169.64 120.97 169.02 120.67 168.06 120.01C167.27 119.47 166.69 118.99 166.78 118.96C166.88 118.93 167.93 119.04 169.13 119.21C170.33 119.37 171.33 119.48 171.35 119.45C171.38 119.42 170.89 118.5 170.26 117.41C169.64 116.32 169.21 115.41 169.32 115.38C169.42 115.35 170.1 115.74 170.82 116.23C171.77 116.88 172.15 117.26 172.19 117.6C172.25 118.04 172.3 118.01 172.87 117.18C173.21 116.68 173.48 116.24 173.48 116.18C173.48 116.13 173.38 116.12 173.25 116.16C173.12 116.2 172.76 116.1 172.44 115.94C172.13 115.78 171.17 115.2 170.31 114.64C168.93 113.75 168.76 113.58 168.84 113.16C168.9 112.9 168.91 112.69 168.87 112.69C168.83 112.69 168.57 113.03 168.3 113.44ZM35.67 118.63C35.69 119 35.37 119.33 33.9 120.43C32.54 121.46 32 121.76 31.68 121.68C31.44 121.62 31.25 121.62 31.25 121.67C31.25 121.72 31.78 122.5 32.43 123.39C33.08 124.29 33.68 125.05 33.76 125.09C33.84 125.13 34.16 125.12 34.47 125.07C34.78 125.02 35.04 124.89 35.04 124.79C35.04 124.68 34.78 124.6 34.47 124.6C34.05 124.6 33.75 124.42 33.33 123.94C33.02 123.57 32.77 123.15 32.77 122.99C32.77 122.83 33.57 122.11 34.56 121.38C36.07 120.28 36.45 120.08 36.88 120.18C37.4 120.29 37.4 120.29 37.07 119.84C36.89 119.6 36.55 119.12 36.31 118.79C36.08 118.45 35.83 118.17 35.76 118.17C35.69 118.17 35.65 118.37 35.67 118.63ZM37.95 121.57C38.01 121.91 37.66 122.8 36.73 124.65C36.01 126.07 35.46 127.31 35.5 127.39C35.55 127.46 36.38 127.3 37.35 127.03C38.32 126.75 39.66 126.42 40.34 126.29C41.57 126.06 41.57 126.06 42 126.56C42.24 126.84 42.36 127.15 42.28 127.29C42.2 127.41 41.42 128.14 40.53 128.91C39.37 129.91 38.8 130.28 38.5 130.24C38.27 130.2 38.07 130.22 38.07 130.27C38.06 130.32 38.34 130.64 38.68 130.98C39.02 131.31 39.36 131.59 39.44 131.59C39.52 131.59 39.5 131.42 39.39 131.22C39.23 130.89 39.38 130.68 40.44 129.7C41.11 129.08 41.73 128.57 41.81 128.57C41.89 128.58 41.63 129.49 41.24 130.61C40.86 131.72 40.54 132.74 40.53 132.87C40.53 133.03 41.12 132.91 42.38 132.47C43.39 132.13 44.48 131.78 44.79 131.71C45.31 131.58 45.24 131.69 44.03 132.91C42.97 133.99 42.62 134.23 42.28 134.15C42.05 134.1 41.85 134.12 41.85 134.19C41.85 134.27 42.17 134.65 42.56 135.04C42.96 135.43 43.34 135.75 43.42 135.75C43.5 135.75 43.52 135.63 43.47 135.47C43.41 135.29 44 134.54 45.03 133.47C46.55 131.89 46.73 131.76 47.25 131.87L47.82 131.98C46.78 130.92 46.37 130.67 46.21 130.72C46.06 130.77 45.08 131.07 44.03 131.39C42.99 131.71 42.11 131.95 42.08 131.92C42.04 131.9 42.25 131.15 42.53 130.27C42.81 129.39 43.16 128.43 43.3 128.14C43.55 127.64 43.52 127.58 42.38 126.35C41.73 125.64 41.13 125.05 41.05 125.02C40.97 125 40.91 125.1 40.91 125.26C40.91 125.42 40.64 125.62 40.29 125.72C39.96 125.82 39.15 126.05 38.5 126.24C37.85 126.43 37.27 126.52 37.22 126.44C37.17 126.36 37.5 125.53 37.97 124.6C38.59 123.37 38.91 122.92 39.11 122.99C39.27 123.04 39.39 123.02 39.39 122.94C39.39 122.87 39.05 122.42 38.62 121.95C37.96 121.22 37.87 121.16 37.95 121.57ZM158.67 125.8C158.28 126.23 157.96 126.65 157.96 126.72C157.96 126.8 158.13 126.82 158.33 126.77C158.61 126.7 159.16 127.09 160.43 128.24C161.85 129.53 162.13 129.87 162.04 130.22C161.98 130.46 162 130.65 162.07 130.65C162.15 130.65 162.88 129.93 163.68 129.04L165.15 127.43C164.57 126.48 164.39 126.29 164.38 126.39C164.37 126.5 164.37 126.84 164.39 127.15C164.42 127.59 164.27 127.86 163.75 128.33C163.16 128.86 163.02 128.91 162.72 128.71C162.53 128.58 161.71 127.88 160.91 127.15C159.75 126.1 159.46 125.74 159.52 125.4C159.57 125.17 159.55 124.98 159.49 124.99C159.43 125 159.06 125.37 158.67 125.8ZM154.47 129.76C154.17 129.99 153.81 130.41 153.67 130.7C153.52 130.98 153.41 131.36 153.4 131.55C153.4 131.73 153.59 132.12 153.83 132.43L154.26 132.98C157.25 132.75 157.53 132.78 157.82 133.06C158 133.24 158.15 133.54 158.15 133.72C158.15 133.9 157.95 134.23 157.72 134.46C157.36 134.8 157.15 134.84 156.39 134.74C155.84 134.67 155.49 134.69 155.49 134.81C155.49 134.91 155.73 135.13 156.01 135.3C156.31 135.48 156.71 135.56 156.96 135.49C157.19 135.43 157.68 135.08 158.05 134.71C158.61 134.15 158.71 133.92 158.71 133.2C158.71 132.49 158.63 132.29 158.19 131.97C157.9 131.75 157.44 131.58 157.15 131.59C156.86 131.59 156.27 131.69 155.82 131.8C155.24 131.96 154.9 131.96 154.59 131.8C154.26 131.64 154.18 131.46 154.21 130.98C154.25 130.52 154.39 130.31 154.78 130.13C155.15 129.96 155.44 129.95 155.78 130.08C156.04 130.18 156.25 130.21 156.26 130.13C156.26 130.05 156.11 129.84 155.92 129.66C155.74 129.48 155.46 129.33 155.3 129.34C155.15 129.34 154.77 129.53 154.47 129.76ZM151.85 132.21C151.56 132.44 151.33 132.7 151.33 132.78C151.33 132.85 151.47 132.94 151.65 132.96C151.88 133 152.08 133.47 152.39 134.71C152.62 135.65 152.78 136.48 152.73 136.56C152.69 136.63 151.92 136.29 151.03 135.8C149.76 135.1 149.44 134.83 149.52 134.57C149.58 134.38 149.52 134.24 149.38 134.25C149.25 134.25 148.76 134.58 148.3 134.98C147.83 135.37 147.1 135.92 146.69 136.2C145.97 136.67 145.93 136.74 146.05 137.41C146.12 137.8 146.23 138.82 146.29 139.68C146.35 140.53 146.34 141.23 146.26 141.23C146.18 141.23 145.65 140.96 145.08 140.63C144.5 140.3 143.67 139.8 143.23 139.5L142.42 138.97C141.24 139.77 140.9 140.03 140.9 140.05C140.91 140.08 141.08 140.06 141.29 140.01C141.52 139.95 141.79 140.06 142 140.3C142.18 140.51 142.77 141.47 143.32 142.42C144.11 143.81 144.26 144.22 144.08 144.41C143.95 144.54 143.91 144.69 143.99 144.74C144.06 144.79 144.47 144.62 144.89 144.36C145.3 144.1 145.64 143.84 145.64 143.79C145.64 143.74 145.46 143.72 145.23 143.74C144.9 143.78 144.62 143.49 143.85 142.32C143.33 141.51 142.94 140.81 142.99 140.76C143.04 140.7 143.68 141.02 144.41 141.45C145.14 141.88 145.97 142.39 146.26 142.59C146.55 142.78 146.87 142.94 146.97 142.94C147.08 142.94 147.12 142.64 147.06 142.23C147 141.84 146.88 140.88 146.8 140.1C146.71 139.32 146.69 138.62 146.76 138.54C146.82 138.46 147.29 139.01 147.79 139.77C148.47 140.77 148.68 141.26 148.6 141.57C148.52 141.87 148.55 141.96 148.72 141.86C148.85 141.78 149.32 141.49 149.76 141.2C150.21 140.91 150.57 140.63 150.57 140.57C150.57 140.52 150.38 140.5 150.15 140.53C149.81 140.57 149.46 140.2 148.35 138.64C146.98 136.71 146.97 136.69 147.3 136.24C147.48 135.99 147.8 135.73 148.01 135.68C148.26 135.61 149.3 136.07 150.99 136.99C152.43 137.77 153.64 138.38 153.69 138.35C153.74 138.33 153.48 137.03 153.11 135.47C152.74 133.91 152.47 132.44 152.51 132.21C152.56 131.97 152.54 131.79 152.48 131.79C152.42 131.79 152.13 131.98 151.85 132.21ZM48.44 132.75C48.5 133.09 48.15 133.62 46.98 134.95C46.01 136.06 45.32 136.7 45.08 136.7C44.87 136.7 44.7 136.74 44.7 136.79C44.7 136.84 45.02 137.18 45.41 137.54C45.8 137.91 46.18 138.2 46.26 138.21C46.34 138.21 46.36 138.08 46.31 137.93C46.25 137.77 46.45 137.36 46.73 137.02C47.02 136.67 47.72 135.86 48.3 135.22C49.07 134.34 49.46 134.04 49.81 134.05C50.24 134.07 50.26 134.04 50 133.75C49.84 133.58 49.41 133.18 49.05 132.87C48.38 132.31 48.38 132.31 48.44 132.75ZM50.59 134.51C50.58 134.57 50.65 134.79 50.76 135C50.9 135.29 50.85 135.54 50.5 136.08C50.26 136.47 49.62 137.32 49.08 137.97C48.34 138.88 48.02 139.13 47.73 139.06C47.52 139.01 47.35 139.03 47.34 139.11C47.34 139.19 47.72 139.53 48.2 139.87C48.67 140.2 49.05 140.42 49.05 140.34C49.05 140.26 48.97 140.07 48.87 139.91C48.76 139.73 48.78 139.49 48.91 139.25C49.02 139.04 49.53 138.32 50.03 137.64C50.63 136.83 50.97 136.51 51.03 136.7C51.08 136.85 51.21 137.92 51.32 139.06C51.43 140.21 51.56 141.5 51.61 141.95C51.66 142.39 51.79 142.75 51.89 142.75C52 142.75 52.61 142.05 53.25 141.19C53.89 140.33 54.64 139.39 54.91 139.1C55.18 138.82 55.57 138.58 55.78 138.59C56.09 138.59 56.04 138.5 55.49 138.03C55.13 137.72 54.77 137.47 54.69 137.46C54.61 137.46 54.59 137.58 54.64 137.74C54.69 137.89 54.64 138.21 54.52 138.45C54.4 138.68 53.96 139.32 53.53 139.87C53.1 140.42 52.7 140.81 52.63 140.72C52.57 140.64 52.42 139.68 52.3 138.59C52.18 137.5 52.08 136.35 52.09 136.04C52.09 135.63 51.94 135.36 51.57 135.08C51.28 134.86 50.94 134.63 50.82 134.55C50.7 134.47 50.6 134.45 50.59 134.51ZM56.63 139.11C56.62 139.19 56.73 139.35 56.86 139.48C57.05 139.66 56.83 140.12 55.76 141.75C54.6 143.52 54.36 143.78 53.96 143.72C53.67 143.68 53.57 143.73 53.69 143.84C53.8 143.94 54.73 144.55 55.78 145.2L57.67 146.38C58.4 145.63 58.55 145.34 58.47 145.26C58.39 145.18 58.23 145.22 58.1 145.35C57.98 145.48 57.7 145.59 57.49 145.59C57.28 145.59 56.74 145.34 56.3 145.02L55.49 144.45C56.3 142.99 56.62 142.56 56.72 142.55C56.83 142.55 57.15 142.72 57.43 142.93C57.79 143.2 57.93 143.43 57.86 143.69C57.81 143.9 57.85 144.07 57.95 144.07C58.06 144.07 58.31 143.77 58.52 143.41C58.73 143.05 58.9 142.71 58.9 142.65C58.9 142.6 58.67 142.6 58.38 142.66C58.04 142.72 57.7 142.63 57.39 142.4L56.91 142.04C57.72 140.68 58.02 140.29 58.1 140.29C58.17 140.29 58.56 140.5 58.95 140.76C59.5 141.13 59.67 141.38 59.71 141.85L59.75 142.47C60.34 141.37 60.37 141.2 60.18 141.07C60.05 140.98 59.24 140.47 58.38 139.94C57.52 139.4 56.78 138.97 56.72 138.97C56.67 138.97 56.63 139.03 56.63 139.11ZM139.05 140.89C138.51 141.19 138.07 141.51 138.07 141.61C138.07 141.72 138.24 141.76 138.45 141.71C138.75 141.63 138.96 141.86 139.56 142.89C139.96 143.59 140.49 144.53 140.74 144.97C141.12 145.64 141.16 145.82 140.96 146.15C140.83 146.36 140.78 146.53 140.86 146.53C140.94 146.53 141.45 146.3 142 146.01C142.54 145.72 142.99 145.43 142.99 145.35C142.99 145.27 142.8 145.21 142.57 145.21C142.22 145.21 141.93 144.83 141.06 143.27C140.46 142.2 139.97 141.18 139.97 141C139.96 140.82 140.07 140.64 140.2 140.61C140.35 140.57 140.36 140.51 140.24 140.45C140.13 140.4 139.6 140.6 139.05 140.89ZM134.31 143.37C133.65 143.71 133.12 144.06 133.13 144.17C133.14 144.27 133.25 144.36 133.38 144.36C133.51 144.36 134.1 145.29 134.7 146.44C135.29 147.58 135.74 148.66 135.69 148.85C135.64 149.03 135.65 149.18 135.7 149.18C135.75 149.18 136.46 148.84 137.27 148.43C138.08 148.01 138.89 147.48 139.07 147.24C139.25 147.01 139.4 146.58 139.4 146.29C139.39 145.99 139.19 145.57 138.92 145.3C138.63 145.01 138.23 144.83 137.88 144.83C137.37 144.83 137.33 144.79 137.5 144.45C137.6 144.24 137.69 143.92 137.7 143.74C137.7 143.56 137.55 143.26 137.36 143.08C137.16 142.88 136.73 142.76 136.27 142.76C135.8 142.77 135.05 143 134.31 143.37ZM63.52 143.4C63.33 143.66 63.19 143.92 63.22 143.97C63.24 144.03 63.49 144.02 63.78 143.95C64.08 143.88 64.57 143.94 64.93 144.09C65.42 144.3 65.54 144.44 65.46 144.73C65.41 144.94 64.95 145.96 64.45 147C63.67 148.63 63.48 148.89 63.12 148.85C62.88 148.82 62.69 148.86 62.7 148.94C62.7 149.02 63.23 149.32 63.88 149.6C64.53 149.89 65.1 150.07 65.15 150C65.2 149.94 65.14 149.85 65.01 149.81C64.88 149.78 64.77 149.57 64.77 149.37C64.77 149.16 65.2 148.09 65.72 147C66.24 145.91 66.77 145.02 66.9 145.02C67.03 145.02 67.35 145.16 67.61 145.34C67.87 145.51 68.14 145.75 68.21 145.86C68.28 145.97 68.3 146.16 68.26 146.29C68.22 146.42 68.27 146.53 68.37 146.53C68.48 146.53 68.65 146.34 68.77 146.1C68.96 145.7 68.99 145.69 69.29 146.02C69.5 146.25 69.64 146.88 69.73 148C69.8 148.91 69.87 150.22 69.87 150.93C69.88 151.64 69.97 152.2 70.08 152.2C70.18 152.2 71.18 151.27 72.3 150.13C73.42 148.99 74.49 148.05 74.67 148.05C74.85 148.05 74.98 147.95 74.95 147.83C74.93 147.71 74.59 147.5 74.2 147.36C73.77 147.2 73.48 147.17 73.48 147.29C73.48 147.39 73.57 147.52 73.67 147.57C73.78 147.62 73.25 148.35 72.49 149.19C71.37 150.44 71.1 150.66 71 150.37C70.94 150.18 70.83 149.28 70.77 148.37C70.65 146.83 70.67 146.71 71.03 146.58C71.33 146.47 71.02 146.28 69.56 145.69C68.54 145.28 66.92 144.58 65.96 144.13C64.99 143.68 64.2 143.23 64.2 143.13C64.2 143.02 64.13 142.94 64.03 142.94C63.94 142.94 63.71 143.15 63.52 143.4Z" />
		<path class="shp3" d="M134.96 143.55C134.63 143.78 134.63 143.82 134.95 144.45C135.13 144.81 135.35 145.22 135.44 145.35C135.56 145.52 135.71 145.53 135.98 145.4C136.19 145.29 136.45 145.04 136.55 144.83C136.68 144.57 136.67 144.32 136.52 144.02C136.4 143.79 136.21 143.54 136.1 143.46C135.98 143.38 135.76 143.32 135.6 143.32C135.44 143.32 135.16 143.42 134.96 143.55Z" />
		<path class="shp0" d="M129.74 145.43C128.76 145.85 127.97 146.27 127.99 146.36C128.01 146.46 128.09 146.49 128.17 146.45C128.25 146.4 128.41 146.42 128.53 146.5C128.65 146.57 129.16 147.58 129.67 148.75L130.59 150.87C130 151.47 129.89 151.64 129.97 151.64C130.05 151.64 131.05 151.25 132.2 150.78L134.28 149.93C134.28 148.74 134.2 148.46 134.09 148.52C133.99 148.57 133.9 148.78 133.9 148.99C133.9 149.2 133.67 149.54 133.38 149.75C133.09 149.96 132.6 150.18 132.29 150.23C131.97 150.29 131.64 150.24 131.53 150.12C131.43 150 131.2 149.57 131.01 149.16L130.68 148.42C131.77 147.88 131.99 147.86 132.24 148.02C132.43 148.14 132.62 148.21 132.68 148.18C132.74 148.16 132.65 147.82 132.49 147.43C132.33 147.04 132.11 146.72 132.01 146.72C131.9 146.72 131.82 146.89 131.82 147.1C131.82 147.36 131.63 147.53 131.2 147.67C130.86 147.77 130.57 147.86 130.54 147.86C130.51 147.85 130.32 147.47 130.11 147C129.91 146.53 129.73 146.11 129.73 146.06C129.73 146.01 129.99 145.84 130.3 145.68C130.62 145.52 131.06 145.39 131.3 145.39C131.53 145.39 131.83 145.5 131.96 145.63C132.09 145.76 132.23 145.8 132.29 145.73C132.34 145.65 132.26 145.37 132.1 145.11C131.95 144.85 131.75 144.64 131.68 144.65C131.6 144.66 130.73 145.01 129.74 145.43Z" />
		<path class="shp3" d="M136.09 145.82C135.75 146.05 135.75 146.08 136.19 146.89C136.44 147.35 136.79 147.82 136.96 147.93C137.2 148.09 137.39 148.06 137.76 147.81C138.09 147.58 138.26 147.3 138.26 146.96C138.26 146.67 138.13 146.24 137.97 146.01C137.78 145.71 137.5 145.58 137.07 145.58C136.73 145.58 136.29 145.69 136.09 145.82Z" />
		<path class="shp0" d="M123.11 147.96C122.32 148.21 121.6 148.51 121.5 148.61C121.37 148.73 121.41 148.88 121.63 149.03C121.8 149.17 122.26 150.21 122.65 151.35C123.21 153.02 123.31 153.5 123.14 153.76C123.01 153.94 122.98 154.09 123.06 154.09C123.14 154.09 123.71 153.93 124.34 153.74C124.96 153.54 125.77 153.24 126.14 153.06C126.5 152.87 127 152.54 127.24 152.32C127.49 152.1 127.81 151.68 127.95 151.4C128.1 151.11 128.22 150.56 128.22 150.17C128.22 149.78 128.05 149.18 127.84 148.85C127.63 148.51 127.19 148.06 126.85 147.85C126.46 147.62 125.91 147.48 125.38 147.48C124.91 147.49 123.89 147.7 123.11 147.96Z" />
		<path class="shp3" d="M123.4 148.26C123.09 148.37 122.86 148.51 122.87 148.58C122.89 148.65 123.2 149.51 123.56 150.5C123.92 151.49 124.26 152.42 124.31 152.58C124.37 152.74 124.55 152.93 124.71 153.01C124.87 153.08 125.28 153.03 125.62 152.89C125.95 152.75 126.38 152.47 126.57 152.28C126.75 152.08 126.95 151.58 127.02 151.16C127.11 150.6 127.04 150.18 126.73 149.51C126.47 148.93 126.12 148.51 125.76 148.33C125.45 148.17 124.91 148.05 124.57 148.06C124.24 148.07 123.71 148.16 123.4 148.26Z" />
		<path class="shp0" d="M75.95 148.64C75.4 148.93 74.94 149.35 74.66 149.84C74.32 150.44 74.24 150.79 74.31 151.54C74.36 152.06 74.57 152.7 74.77 152.96C74.96 153.22 75.5 153.64 75.96 153.89C76.56 154.22 77.11 154.36 77.87 154.36C78.68 154.37 79.08 154.28 79.48 153.98C79.78 153.76 80.21 153.3 80.45 152.94C80.76 152.48 80.88 152.02 80.88 151.35C80.88 150.68 80.76 150.22 80.45 149.76C80.21 149.41 79.68 148.94 79.26 148.73C78.84 148.52 78.12 148.32 77.65 148.28C77.03 148.23 76.57 148.33 75.95 148.64Z" />
		<path class="shp3" d="M76.8 148.95C76.47 149.15 76.09 149.63 75.9 150.09C75.72 150.52 75.57 151.22 75.57 151.63C75.57 152.05 75.7 152.65 75.85 152.96C76.01 153.28 76.42 153.65 76.8 153.81C77.22 153.99 77.65 154.04 77.97 153.95C78.24 153.87 78.65 153.6 78.87 153.34C79.1 153.08 79.39 152.4 79.53 151.82C79.74 150.93 79.73 150.68 79.48 150.03C79.28 149.49 78.99 149.17 78.52 148.94C78.14 148.76 77.73 148.61 77.6 148.61C77.47 148.61 77.11 148.76 76.8 148.95Z" />
		<path class="shp0" d="M118.92 149.24C118.25 149.43 117.3 149.69 116.81 149.81C116.31 149.93 115.91 150.09 115.91 150.17C115.91 150.25 116.04 150.31 116.19 150.31C116.35 150.31 116.48 150.42 116.48 150.55C116.48 150.68 116.34 151.51 116.17 152.39C116 153.28 115.8 154.06 115.74 154.14C115.68 154.23 115.11 153.56 114.49 152.67C113.55 151.34 113.4 151.02 113.64 150.88C113.79 150.79 113.88 150.67 113.83 150.61C113.77 150.56 113.24 150.62 112.64 150.74C112.04 150.87 111.55 151.04 111.55 151.12C111.55 151.19 111.7 151.29 111.88 151.32C112.07 151.36 112.98 152.46 113.92 153.78C114.86 155.1 115.69 156.17 115.77 156.17C115.85 156.17 115.96 155.85 116.03 155.46C116.09 155.07 116.35 153.9 116.59 152.86C116.84 151.82 117.11 150.78 117.18 150.54C117.26 150.31 117.56 150.01 117.85 149.88C118.14 149.75 118.42 149.69 118.47 149.74C118.52 149.8 118.86 150.86 119.23 152.11C119.74 153.82 119.85 154.46 119.71 154.71C119.56 154.95 119.57 155.04 119.74 155.04C119.87 155.03 120.32 154.93 120.74 154.81C121.16 154.69 121.58 154.53 121.68 154.44C121.78 154.35 121.68 154.28 121.44 154.28C121.09 154.28 120.97 154.08 120.66 153.01C120.46 152.3 120.16 151.24 119.99 150.64C119.72 149.63 119.72 149.54 120.03 149.29C120.21 149.14 120.31 148.99 120.25 148.95C120.18 148.91 119.59 149.04 118.92 149.24Z" />
		<path class="shp3" d="M93.04 152.53C92.94 152.92 92.03 155.92 91.03 159.2C90.03 162.47 89.05 165.62 88.85 166.19C88.55 167.04 88.53 167.33 88.7 167.79C88.82 168.09 89.26 168.63 89.68 168.98C90.09 169.32 90.99 169.89 91.67 170.24C92.34 170.59 93.45 171.05 94.13 171.27C94.81 171.49 95.83 171.76 96.4 171.87C96.97 171.98 98.64 172.07 100.09 172.07C102.26 172.06 103.08 171.98 104.55 171.61C105.54 171.36 106.81 170.94 107.39 170.69C107.96 170.44 108.96 169.88 109.61 169.44C110.26 169.01 110.92 168.4 111.08 168.08C111.24 167.77 111.36 167.33 111.36 167.09C111.36 166.86 111.2 166.33 111.01 165.91C110.82 165.49 109.79 162.26 108.73 158.73C107.67 155.19 106.76 152.19 106.72 152.06C106.66 151.9 106.29 152.03 105.54 152.49C104.94 152.86 104.02 153.29 103.5 153.45C102.98 153.61 101.83 153.79 100.95 153.85C100.02 153.91 98.78 153.86 98.01 153.72C97.28 153.6 96.26 153.33 95.74 153.14C95.22 152.95 94.47 152.57 94.08 152.31C93.69 152.04 93.34 151.82 93.3 151.82C93.25 151.82 93.14 152.14 93.04 152.53Z" />
	</g>
</svg>